ffmpeg version 4.2.4-1ubuntu0.1 Copyright (c) 2000-2020 the FFmpeg developers
  built with gcc 9 (Ubuntu 9.3.0-10ubuntu2)
  configuration: --prefix=/usr --extra-version=1ubuntu0.1 --toolchain=hardened --libdir=/usr/lib/x86_64-linux-gnu --incdir=/usr/include/x86_64-linux-gnu --arch=amd64 --enable-gpl --disable-stripping --enable-avresample --disable-filter=resample --enable-avisynth --enable-gnutls --enable-ladspa --enable-libaom --enable-libass --enable-libbluray --enable-libbs2b --enable-libcaca --enable-libcdio --enable-libcodec2 --enable-libflite --enable-libfontconfig --enable-libfreetype --enable-libfribidi --enable-libgme --enable-libgsm --enable-libjack --enable-libmp3lame --enable-libmysofa --enable-libopenjpeg --enable-libopenmpt --enable-libopus --enable-libpulse --enable-librsvg --enable-librubberband --enable-libshine --enable-libsnappy --enable-libsoxr --enable-libspeex --enable-libssh --enable-libtheora --enable-libtwolame --enable-libvidstab --enable-libvorbis --enable-libvpx --enable-libwavpack --enable-libwebp --enable-libx265 --enable-libxml2 --enable-libxvid --enable-libzmq --enable-libzvbi --enable-lv2 --enable-omx --enable-openal --enable-opencl --enable-opengl --enable-sdl2 --enable-libdc1394 --enable-libdrm --enable-libiec61883 --enable-nvenc --enable-chromaprint --enable-frei0r --enable-libx264 --enable-shared
  WARNING: library configuration mismatch
  avcodec     configuration: --prefix=/usr --extra-version=1ubuntu0.1 --toolchain=hardened --libdir=/usr/lib/x86_64-linux-gnu --incdir=/usr/include/x86_64-linux-gnu --arch=amd64 --enable-gpl --disable-stripping --enable-avresample --disable-filter=resample --enable-avisynth --enable-gnutls --enable-ladspa --enable-libaom --enable-libass --enable-libbluray --enable-libbs2b --enable-libcaca --enable-libcdio --enable-libcodec2 --enable-libflite --enable-libfontconfig --enable-libfreetype --enable-libfribidi --enable-libgme --enable-libgsm --enable-libjack --enable-libmp3lame --enable-libmysofa --enable-libopenjpeg --enable-libopenmpt --enable-libopus --enable-libpulse --enable-librsvg --enable-librubberband --enable-libshine --enable-libsnappy --enable-libsoxr --enable-libspeex --enable-libssh --enable-libtheora --enable-libtwolame --enable-libvidstab --enable-libvorbis --enable-libvpx --enable-libwavpack --enable-libwebp --enable-libx265 --enable-libxml2 --enable-libxvid --enable-libzmq --enable-libzvbi --enable-lv2 --enable-omx --enable-openal --enable-opencl --enable-opengl --enable-sdl2 --enable-libdc1394 --enable-libdrm --enable-libiec61883 --enable-nvenc --enable-chromaprint --enable-frei0r --enable-libx264 --enable-shared --enable-version3 --disable-doc --disable-programs --enable-libaribb24 --enable-liblensfun --enable-libopencore_amrnb --enable-libopencore_amrwb --enable-libtesseract --enable-libvo_amrwbenc
  libavutil      56. 31.100 / 56. 31.100
  libavcodec     58. 54.100 / 58. 54.100
  libavformat    58. 29.100 / 58. 29.100
  libavdevice    58.  8.100 / 58.  8.100
  libavfilter     7. 57.100 /  7. 57.100
  libavresample   4.  0.  0 /  4.  0.  0
  libswscale      5.  5.100 /  5.  5.100
  libswresample   3.  5.100 /  3.  5.100
  libpostproc    55.  5.100 / 55.  5.100
Input #0, image2pipe, from 'pipe:':
  Duration: N/A, bitrate: N/A
    Stream #0:0: Video: ppm, rgb24, 600x600, 25 fps, 25 tbr, 25 tbn, 25 tbc
Stream mapping:
  Stream #0:0 -> #0:0 (ppm (native) -> h264 (libx264))
[libx264 @ 0x5555555e0800] using cpu capabilities: MMX2 SSE2Fast SSSE3 SSE4.2 AVX FMA3 BMI2 AVX2 AVX512
[libx264 @ 0x5555555e0800] profile High, level 3.0
Output #0, mpegts, to 'amove.mp4':
  Metadata:
    encoder         : Lavf58.29.100
    Stream #0:0: Video: h264 (libx264), yuv420p, 600x600, q=-1--1, 25 fps, 90k tbn, 25 tbc
    Metadata:
      encoder         : Lavc58.54.100 libx264
    Side data:
      cpb: bitrate max/min/avg: 0/0/0 buffer size: 0 vbv_delay: -1
frame=    7 fps=0.6 q=15.0 size=      23kB time=00:00:00.24 bitrate= 789.6kbits/s speed=0.022x    frame=    8 fps=0.3 q=15.0 size=      26kB time=00:00:00.28 bitrate= 768.1kbits/s speed=0.0118x    frame=    9 fps=0.2 q=15.0 size=      29kB time=00:00:00.32 bitrate= 742.6kbits/s speed=0.00771x    frame=   10 fps=0.2 q=15.0 size=      32kB time=00:00:00.36 bitrate= 739.4kbits/s speed=0.00646x    frame=   11 fps=0.1 q=15.0 size=      36kB time=00:00:00.40 bitrate= 729.4kbits/s speed=0.00515x    frame=   12 fps=0.1 q=15.0 size=      38kB time=00:00:00.44 bitrate= 714.4kbits/s speed=0.00478x    frame=   13 fps=0.1 q=15.0 size=      42kB time=00:00:00.48 bitrate= 711.3kbits/s speed=0.00438x    frame=   14 fps=0.1 q=14.0 size=      44kB time=00:00:00.52 bitrate= 691.2kbits/s speed=0.00393x    frame=   15 fps=0.1 q=15.0 size=      46kB time=00:00:00.56 bitrate= 679.5kbits/s speed=0.00363x    frame=   16 fps=0.1 q=15.0 size=      50kB time=00:00:00.60 bitrate= 676.8kbits/s speed=0.00353x    frame=   17 fps=0.1 q=14.0 size=      52kB time=00:00:00.64 bitrate= 667.4kbits/s speed=0.00346x    frame=   18 fps=0.1 q=14.0 size=      55kB time=00:00:00.68 bitrate= 665.7kbits/s speed=0.0034x    frame=   19 fps=0.1 q=14.0 size=      58kB time=00:00:00.72 bitrate= 655.9kbits/s speed=0.00333x    frame=   20 fps=0.1 q=14.0 size=      60kB time=00:00:00.76 bitrate= 645.1kbits/s speed=0.00323x    frame=   21 fps=0.1 q=14.0 size=      63kB time=00:00:00.80 bitrate= 641.1kbits/s speed=0.00316x    frame=   22 fps=0.1 q=14.0 size=      66kB time=00:00:00.84 bitrate= 639.2kbits/s speed=0.00314x    frame=   23 fps=0.1 q=15.0 size=      68kB time=00:00:00.88 bitrate= 635.8kbits/s speed=0.0031x    frame=   24 fps=0.1 q=14.0 size=      71kB time=00:00:00.92 bitrate= 631.0kbits/s speed=0.00305x    frame=   25 fps=0.1 q=15.0 size=      73kB time=00:00:00.96 bitrate= 625.1kbits/s speed=0.00302x    frame=   26 fps=0.1 q=15.0 size=      76kB time=00:00:01.00 bitrate= 624.2kbits/s speed=0.00298x    frame=   27 fps=0.1 q=14.0 size=      79kB time=00:00:01.04 bitrate= 624.7kbits/s speed=0.00297x    frame=   28 fps=0.1 q=14.0 size=      82kB time=00:00:01.08 bitrate= 621.1kbits/s speed=0.00297x    frame=   29 fps=0.1 q=14.0 size=      84kB time=00:00:01.12 bitrate= 616.4kbits/s speed=0.00297x    frame=   30 fps=0.1 q=14.0 size=      87kB time=00:00:01.16 bitrate= 614.6kbits/s speed=0.00297x    frame=   31 fps=0.1 q=14.0 size=      89kB time=00:00:01.20 bitrate= 605.4kbits/s speed=0.00297x    frame=   32 fps=0.1 q=14.0 size=      91kB time=00:00:01.24 bitrate= 598.0kbits/s speed=0.00303x    frame=   33 fps=0.1 q=14.0 size=      93kB time=00:00:01.28 bitrate= 595.7kbits/s speed=0.00303x    frame=   34 fps=0.1 q=14.0 size=      96kB time=00:00:01.32 bitrate= 594.8kbits/s speed=0.0031x    frame=   35 fps=0.1 q=14.0 size=      98kB time=00:00:01.36 bitrate= 592.7kbits/s speed=0.00311x    frame=   36 fps=0.1 q=14.0 size=     101kB time=00:00:01.40 bitrate= 593.0kbits/s speed=0.0031x    frame=   37 fps=0.1 q=15.0 size=     104kB time=00:00:01.44 bitrate= 593.2kbits/s speed=0.0031x    frame=   38 fps=0.1 q=15.0 size=     108kB time=00:00:01.48 bitrate= 596.5kbits/s speed=0.00309x    frame=   39 fps=0.1 q=15.0 size=     111kB time=00:00:01.52 bitrate= 597.6kbits/s speed=0.00305x    frame=   40 fps=0.1 q=15.0 size=     114kB time=00:00:01.56 bitrate= 597.7kbits/s speed=0.00297x    frame=   41 fps=0.1 q=15.0 size=     118kB time=00:00:01.60 bitrate= 601.6kbits/s speed=0.00283x    frame=   42 fps=0.1 q=15.0 size=     120kB time=00:00:01.64 bitrate= 597.0kbits/s speed=0.00279x    frame=   43 fps=0.1 q=15.0 size=     122kB time=00:00:01.68 bitrate= 596.2kbits/s speed=0.0027x    Error while decoding stream #0:0: Invalid data found when processing input
frame=   43 fps=0.1 q=15.0 size=     122kB time=00:00:01.68 bitrate= 596.2kbits/s speed=0.00264x    frame=   43 fps=0.1 q=15.0 Lsize=     122kB time=00:00:01.68 bitrate= 596.2kbits/s speed=0.0026x    
video:108kB audio:0kB subtitle:0kB other streams:0kB global headers:0kB muxing overhead: 12.853886%
[libx264 @ 0x5555555e0800] frame I:1     Avg QP: 1.37  size:  1410
[libx264 @ 0x5555555e0800] frame P:42    Avg QP: 3.07  size:  2608
[libx264 @ 0x5555555e0800] mb I  I16..4: 99.4%  0.0%  0.6%
[libx264 @ 0x5555555e0800] mb P  I16..4:  7.2%  1.7%  2.2%  P16..4:  2.3%  0.9%  0.4%  0.0%  0.0%    skip:85.4%
[libx264 @ 0x5555555e0800] 8x8 transform intra:12.7% inter:58.1%
[libx264 @ 0x5555555e0800] coded y,uvDC,uvAC intra: 23.0% 39.2% 34.6% inter: 1.4% 2.2% 1.9%
[libx264 @ 0x5555555e0800] i16 v,h,dc,p: 54% 37%  9%  0%
[libx264 @ 0x5555555e0800] i8 v,h,dc,ddl,ddr,vr,hd,vl,hu:  7% 48% 26%  1%  2%  2%  3%  2%  8%
[libx264 @ 0x5555555e0800] i4 v,h,dc,ddl,ddr,vr,hd,vl,hu: 12% 59% 11%  2%  3%  2%  5%  1%  4%
[libx264 @ 0x5555555e0800] i8c dc,h,v,p: 49% 48%  2%  1%
[libx264 @ 0x5555555e0800] Weighted P-Frames: Y:35.7% UV:33.3%
[libx264 @ 0x5555555e0800] ref P L0: 32.8%  3.2% 38.3%  8.5%  6.9%  8.5%  1.8%
[libx264 @ 0x5555555e0800] kb/s:516.03
Exiting normally, received signal 2.
ffmpeg version 4.2.4-1ubuntu0.1 Copyright (c) 2000-2020 the FFmpeg developers
  built with gcc 9 (Ubuntu 9.3.0-10ubuntu2)
  configuration: --prefix=/usr --extra-version=1ubuntu0.1 --toolchain=hardened --libdir=/usr/lib/x86_64-linux-gnu --incdir=/usr/include/x86_64-linux-gnu --arch=amd64 --enable-gpl --disable-stripping --enable-avresample --disable-filter=resample --enable-avisynth --enable-gnutls --enable-ladspa --enable-libaom --enable-libass --enable-libbluray --enable-libbs2b --enable-libcaca --enable-libcdio --enable-libcodec2 --enable-libflite --enable-libfontconfig --enable-libfreetype --enable-libfribidi --enable-libgme --enable-libgsm --enable-libjack --enable-libmp3lame --enable-libmysofa --enable-libopenjpeg --enable-libopenmpt --enable-libopus --enable-libpulse --enable-librsvg --enable-librubberband --enable-libshine --enable-libsnappy --enable-libsoxr --enable-libspeex --enable-libssh --enable-libtheora --enable-libtwolame --enable-libvidstab --enable-libvorbis --enable-libvpx --enable-libwavpack --enable-libwebp --enable-libx265 --enable-libxml2 --enable-libxvid --enable-libzmq --enable-libzvbi --enable-lv2 --enable-omx --enable-openal --enable-opencl --enable-opengl --enable-sdl2 --enable-libdc1394 --enable-libdrm --enable-libiec61883 --enable-nvenc --enable-chromaprint --enable-frei0r --enable-libx264 --enable-shared
  WARNING: library configuration mismatch
  avcodec     configuration: --prefix=/usr --extra-version=1ubuntu0.1 --toolchain=hardened --libdir=/usr/lib/x86_64-linux-gnu --incdir=/usr/include/x86_64-linux-gnu --arch=amd64 --enable-gpl --disable-stripping --enable-avresample --disable-filter=resample --enable-avisynth --enable-gnutls --enable-ladspa --enable-libaom --enable-libass --enable-libbluray --enable-libbs2b --enable-libcaca --enable-libcdio --enable-libcodec2 --enable-libflite --enable-libfontconfig --enable-libfreetype --enable-libfribidi --enable-libgme --enable-libgsm --enable-libjack --enable-libmp3lame --enable-libmysofa --enable-libopenjpeg --enable-libopenmpt --enable-libopus --enable-libpulse --enable-librsvg --enable-librubberband --enable-libshine --enable-libsnappy --enable-libsoxr --enable-libspeex --enable-libssh --enable-libtheora --enable-libtwolame --enable-libvidstab --enable-libvorbis --enable-libvpx --enable-libwavpack --enable-libwebp --enable-libx265 --enable-libxml2 --enable-libxvid --enable-libzmq --enable-libzvbi --enable-lv2 --enable-omx --enable-openal --enable-opencl --enable-opengl --enable-sdl2 --enable-libdc1394 --enable-libdrm --enable-libiec61883 --enable-nvenc --enable-chromaprint --enable-frei0r --enable-libx264 --enable-shared --enable-version3 --disable-doc --disable-programs --enable-libaribb24 --enable-liblensfun --enable-libopencore_amrnb --enable-libopencore_amrwb --enable-libtesseract --enable-libvo_amrwbenc
  libavutil      56. 31.100 / 56. 31.100
  libavcodec     58. 54.100 / 58. 54.100
  libavformat    58. 29.100 / 58. 29.100
  libavdevice    58.  8.100 / 58.  8.100
  libavfilter     7. 57.100 /  7. 57.100
  libavresample   4.  0.  0 /  4.  0.  0
  libswscale      5.  5.100 /  5.  5.100
  libswresample   3.  5.100 /  3.  5.100
  libpostproc    55.  5.100 / 55.  5.100
Input #0, image2pipe, from 'pipe:':
  Duration: N/A, bitrate: N/A
    Stream #0:0: Video: ppm, rgb24, 600x600, 25 fps, 25 tbr, 25 tbn, 25 tbc
Stream mapping:
  Stream #0:0 -> #0:0 (ppm (native) -> h264 (libx264))
[libx264 @ 0x5555555e0800] using cpu capabilities: MMX2 SSE2Fast SSSE3 SSE4.2 AVX FMA3 BMI2 AVX2 AVX512
[libx264 @ 0x5555555e0800] profile High, level 3.0
Output #0, mpegts, to 'xmovie.mp4':
  Metadata:
    encoder         : Lavf58.29.100
    Stream #0:0: Video: h264 (libx264), yuv420p, 600x600, q=-1--1, 25 fps, 90k tbn, 25 tbc
    Metadata:
      encoder         : Lavc58.54.100 libx264
    Side data:
      cpb: bitrate max/min/avg: 0/0/0 buffer size: 0 vbv_delay: -1
frame=    7 fps=0.6 q=14.0 size=       6kB time=00:00:00.24 bitrate= 188.0kbits/s speed=0.0219x    frame=    8 fps=0.3 q=14.0 size=       6kB time=00:00:00.28 bitrate= 182.6kbits/s speed=0.0118x    frame=    9 fps=0.2 q=14.0 size=       7kB time=00:00:00.32 bitrate= 183.3kbits/s speed=0.0077x    frame=   10 fps=0.2 q=14.0 size=       9kB time=00:00:00.36 bitrate= 196.3kbits/s speed=0.00645x    frame=   11 fps=0.1 q=14.0 size=      10kB time=00:00:00.40 bitrate= 195.5kbits/s speed=0.00515x    frame=   12 fps=0.1 q=14.0 size=      10kB time=00:00:00.44 bitrate= 194.8kbits/s speed=0.00477x    frame=   13 fps=0.1 q=14.0 size=      11kB time=00:00:00.48 bitrate= 194.3kbits/s speed=0.00438x    frame=   14 fps=0.1 q=14.0 size=      12kB time=00:00:00.52 bitrate= 193.8kbits/s speed=0.00392x    frame=   15 fps=0.1 q=14.0 size=      13kB time=00:00:00.56 bitrate= 193.4kbits/s speed=0.00363x    frame=   16 fps=0.1 q=14.0 size=      14kB time=00:00:00.60 bitrate= 193.0kbits/s speed=0.00353x    frame=   17 fps=0.1 q=14.0 size=      15kB time=00:00:00.64 bitrate= 192.7kbits/s speed=0.00346x    frame=   18 fps=0.1 q=14.0 size=      16kB time=00:00:00.68 bitrate= 196.8kbits/s speed=0.0034x    frame=   19 fps=0.1 q=14.0 size=      17kB time=00:00:00.72 bitrate= 194.3kbits/s speed=0.00333x    frame=   20 fps=0.1 q=14.0 size=      18kB time=00:00:00.76 bitrate= 193.9kbits/s speed=0.00322x    frame=   21 fps=0.1 q=14.0 size=      19kB time=00:00:00.80 bitrate= 193.6kbits/s speed=0.00316x    frame=   22 fps=0.1 q=14.0 size=      20kB time=00:00:00.84 bitrate= 193.4kbits/s speed=0.00314x    frame=   23 fps=0.1 q=14.0 size=      21kB time=00:00:00.88 bitrate= 193.1kbits/s speed=0.0031x    frame=   24 fps=0.1 q=14.0 size=      22kB time=00:00:00.92 bitrate= 192.9kbits/s speed=0.00305x    frame=   25 fps=0.1 q=14.0 size=      23kB time=00:00:00.96 bitrate= 194.3kbits/s speed=0.00302x    frame=   26 fps=0.1 q=14.0 size=      24kB time=00:00:01.00 bitrate= 197.0kbits/s speed=0.00298x    frame=   27 fps=0.1 q=14.0 size=      25kB time=00:00:01.04 bitrate= 198.1kbits/s speed=0.00297x    frame=   28 fps=0.1 q=14.0 size=      26kB time=00:00:01.08 bitrate= 199.1kbits/s speed=0.00297x    frame=   29 fps=0.1 q=14.0 size=      27kB time=00:00:01.12 bitrate= 200.1kbits/s speed=0.00297x    frame=   30 fps=0.1 q=14.0 size=      28kB time=00:00:01.16 bitrate= 199.7kbits/s speed=0.00297x    frame=   31 fps=0.1 q=14.0 size=      29kB time=00:00:01.20 bitrate= 199.3kbits/s speed=0.00297x    frame=   32 fps=0.1 q=13.0 size=      30kB time=00:00:01.24 bitrate= 197.7kbits/s speed=0.00302x    frame=   33 fps=0.1 q=13.0 size=      31kB time=00:00:01.28 bitrate= 196.2kbits/s speed=0.00303x    frame=   34 fps=0.1 q=13.0 size=      32kB time=00:00:01.32 bitrate= 198.3kbits/s speed=0.0031x    frame=   35 fps=0.1 q=14.0 size=      33kB time=00:00:01.36 bitrate= 198.0kbits/s speed=0.00311x    frame=   36 fps=0.1 q=14.0 size=      34kB time=00:00:01.40 bitrate= 197.7kbits/s speed=0.0031x    frame=   37 fps=0.1 q=14.0 size=      35kB time=00:00:01.44 bitrate= 196.4kbits/s speed=0.0031x    frame=   38 fps=0.1 q=14.0 size=      35kB time=00:00:01.48 bitrate= 196.1kbits/s speed=0.00309x    frame=   39 fps=0.1 q=14.0 size=      36kB time=00:00:01.52 bitrate= 195.9kbits/s speed=0.00305x    frame=   40 fps=0.1 q=14.0 size=      37kB time=00:00:01.56 bitrate= 194.7kbits/s speed=0.00297x    frame=   41 fps=0.1 q=14.0 size=      38kB time=00:00:01.60 bitrate= 194.6kbits/s speed=0.00283x    frame=   42 fps=0.1 q=14.0 size=      39kB time=00:00:01.64 bitrate= 197.2kbits/s speed=0.00279x    frame=   43 fps=0.1 q=14.0 size=      40kB time=00:00:01.68 bitrate= 196.1kbits/s speed=0.0027x    Error while decoding stream #0:0: Invalid data found when processing input
frame=   43 fps=0.1 q=14.0 size=      40kB time=00:00:01.68 bitrate= 196.1kbits/s speed=0.00264x    frame=   43 fps=0.1 q=14.0 Lsize=      40kB time=00:00:01.68 bitrate= 196.1kbits/s speed=0.0026x    
video:32kB audio:0kB subtitle:0kB other streams:0kB global headers:0kB muxing overhead: 25.158073%
[libx264 @ 0x5555555e0800] frame I:1     Avg QP: 1.40  size:  1587
[libx264 @ 0x5555555e0800] frame P:42    Avg QP: 2.31  size:   745
[libx264 @ 0x5555555e0800] mb I  I16..4: 99.4%  0.0%  0.6%
[libx264 @ 0x5555555e0800] mb P  I16..4:  0.9%  0.3%  0.1%  P16..4:  2.3%  1.2%  0.6%  0.0%  0.0%    skip:94.6%
[libx264 @ 0x5555555e0800] 8x8 transform intra:8.4% inter:52.1%
[libx264 @ 0x5555555e0800] coded y,uvDC,uvAC intra: 10.5% 21.8% 18.9% inter: 0.8% 1.0% 0.5%
[libx264 @ 0x5555555e0800] i16 v,h,dc,p: 52% 31% 17%  0%
[libx264 @ 0x5555555e0800] i8 v,h,dc,ddl,ddr,vr,hd,vl,hu:  1% 70% 22%  0%  0%  1%  2%  1%  4%
[libx264 @ 0x5555555e0800] i4 v,h,dc,ddl,ddr,vr,hd,vl,hu:  8% 50% 29%  1%  2%  1%  4%  1%  4%
[libx264 @ 0x5555555e0800] i8c dc,h,v,p: 62% 38%  1%  0%
[libx264 @ 0x5555555e0800] Weighted P-Frames: Y:0.0% UV:0.0%
[libx264 @ 0x5555555e0800] ref P L0: 59.8%  2.6% 17.3%  8.3%  6.8%  5.3%
[libx264 @ 0x5555555e0800] kb/s:153.00
Exiting normally, received signal 2.
ffmpeg version 4.2.4-1ubuntu0.1 Copyright (c) 2000-2020 the FFmpeg developers
  built with gcc 9 (Ubuntu 9.3.0-10ubuntu2)
  configuration: --prefix=/usr --extra-version=1ubuntu0.1 --toolchain=hardened --libdir=/usr/lib/x86_64-linux-gnu --incdir=/usr/include/x86_64-linux-gnu --arch=amd64 --enable-gpl --disable-stripping --enable-avresample --disable-filter=resample --enable-avisynth --enable-gnutls --enable-ladspa --enable-libaom --enable-libass --enable-libbluray --enable-libbs2b --enable-libcaca --enable-libcdio --enable-libcodec2 --enable-libflite --enable-libfontconfig --enable-libfreetype --enable-libfribidi --enable-libgme --enable-libgsm --enable-libjack --enable-libmp3lame --enable-libmysofa --enable-libopenjpeg --enable-libopenmpt --enable-libopus --enable-libpulse --enable-librsvg --enable-librubberband --enable-libshine --enable-libsnappy --enable-libsoxr --enable-libspeex --enable-libssh --enable-libtheora --enable-libtwolame --enable-libvidstab --enable-libvorbis --enable-libvpx --enable-libwavpack --enable-libwebp --enable-libx265 --enable-libxml2 --enable-libxvid --enable-libzmq --enable-libzvbi --enable-lv2 --enable-omx --enable-openal --enable-opencl --enable-opengl --enable-sdl2 --enable-libdc1394 --enable-libdrm --enable-libiec61883 --enable-nvenc --enable-chromaprint --enable-frei0r --enable-libx264 --enable-shared
  WARNING: library configuration mismatch
  avcodec     configuration: --prefix=/usr --extra-version=1ubuntu0.1 --toolchain=hardened --libdir=/usr/lib/x86_64-linux-gnu --incdir=/usr/include/x86_64-linux-gnu --arch=amd64 --enable-gpl --disable-stripping --enable-avresample --disable-filter=resample --enable-avisynth --enable-gnutls --enable-ladspa --enable-libaom --enable-libass --enable-libbluray --enable-libbs2b --enable-libcaca --enable-libcdio --enable-libcodec2 --enable-libflite --enable-libfontconfig --enable-libfreetype --enable-libfribidi --enable-libgme --enable-libgsm --enable-libjack --enable-libmp3lame --enable-libmysofa --enable-libopenjpeg --enable-libopenmpt --enable-libopus --enable-libpulse --enable-librsvg --enable-librubberband --enable-libshine --enable-libsnappy --enable-libsoxr --enable-libspeex --enable-libssh --enable-libtheora --enable-libtwolame --enable-libvidstab --enable-libvorbis --enable-libvpx --enable-libwavpack --enable-libwebp --enable-libx265 --enable-libxml2 --enable-libxvid --enable-libzmq --enable-libzvbi --enable-lv2 --enable-omx --enable-openal --enable-opencl --enable-opengl --enable-sdl2 --enable-libdc1394 --enable-libdrm --enable-libiec61883 --enable-nvenc --enable-chromaprint --enable-frei0r --enable-libx264 --enable-shared --enable-version3 --disable-doc --disable-programs --enable-libaribb24 --enable-liblensfun --enable-libopencore_amrnb --enable-libopencore_amrwb --enable-libtesseract --enable-libvo_amrwbenc
  libavutil      56. 31.100 / 56. 31.100
  libavcodec     58. 54.100 / 58. 54.100
  libavformat    58. 29.100 / 58. 29.100
  libavdevice    58.  8.100 / 58.  8.100
  libavfilter     7. 57.100 /  7. 57.100
  libavresample   4.  0.  0 /  4.  0.  0
  libswscale      5.  5.100 /  5.  5.100
  libswresample   3.  5.100 /  3.  5.100
  libpostproc    55.  5.100 / 55.  5.100
Input #0, image2pipe, from 'pipe:':
  Duration: N/A, bitrate: N/A
    Stream #0:0: Video: ppm, rgb24, 600x600, 25 fps, 25 tbr, 25 tbn, 25 tbc
Stream mapping:
  Stream #0:0 -> #0:0 (ppm (native) -> h264 (libx264))
[libx264 @ 0x5555555e0800] using cpu capabilities: MMX2 SSE2Fast SSSE3 SSE4.2 AVX FMA3 BMI2 AVX2 AVX512
[libx264 @ 0x5555555e0800] profile High, level 3.0
Output #0, mpegts, to 'ymovie.mp4':
  Metadata:
    encoder         : Lavf58.29.100
    Stream #0:0: Video: h264 (libx264), yuv420p, 600x600, q=-1--1, 25 fps, 90k tbn, 25 tbc
    Metadata:
      encoder         : Lavc58.54.100 libx264
    Side data:
      cpb: bitrate max/min/avg: 0/0/0 buffer size: 0 vbv_delay: -1
frame=    7 fps=0.6 q=13.0 size=       5kB time=00:00:00.24 bitrate= 181.7kbits/s speed=0.022x    frame=    8 fps=0.3 q=13.0 size=       6kB time=00:00:00.28 bitrate= 171.9kbits/s speed=0.0118x    frame=    9 fps=0.2 q=13.0 size=       6kB time=00:00:00.32 bitrate= 164.5kbits/s speed=0.00771x    frame=   10 fps=0.2 q=14.0 size=       7kB time=00:00:00.36 bitrate= 162.9kbits/s speed=0.00646x    frame=   11 fps=0.1 q=13.0 size=       8kB time=00:00:00.40 bitrate= 157.9kbits/s speed=0.00515x    frame=   12 fps=0.1 q=14.0 size=       9kB time=00:00:00.44 bitrate= 160.7kbits/s speed=0.00477x    frame=   13 fps=0.1 q=14.0 size=       9kB time=00:00:00.48 bitrate= 156.7kbits/s speed=0.00438x    frame=   14 fps=0.1 q=14.0 size=      10kB time=00:00:00.52 bitrate= 153.3kbits/s speed=0.00393x    frame=   15 fps=0.1 q=14.0 size=      10kB time=00:00:00.56 bitrate= 150.4kbits/s speed=0.00363x    frame=   16 fps=0.1 q=14.0 size=      11kB time=00:00:00.60 bitrate= 147.9kbits/s speed=0.00353x    frame=   17 fps=0.1 q=14.0 size=      12kB time=00:00:00.64 bitrate= 148.0kbits/s speed=0.00346x    frame=   18 fps=0.1 q=14.0 size=      12kB time=00:00:00.68 bitrate= 146.0kbits/s speed=0.0034x    frame=   19 fps=0.1 q=14.0 size=      13kB time=00:00:00.72 bitrate= 144.1kbits/s speed=0.00333x    frame=   20 fps=0.1 q=14.0 size=      13kB time=00:00:00.76 bitrate= 144.5kbits/s speed=0.00323x    frame=   21 fps=0.1 q=14.0 size=      14kB time=00:00:00.80 bitrate= 144.8kbits/s speed=0.00316x    frame=   22 fps=0.1 q=14.0 size=      15kB time=00:00:00.84 bitrate= 143.2kbits/s speed=0.00314x    frame=   23 fps=0.1 q=14.0 size=      15kB time=00:00:00.88 bitrate= 143.6kbits/s speed=0.0031x    frame=   24 fps=0.1 q=14.0 size=      17kB time=00:00:00.92 bitrate= 147.1kbits/s speed=0.00305x    frame=   25 fps=0.1 q=14.0 size=      17kB time=00:00:00.96 bitrate= 147.3kbits/s speed=0.00302x    frame=   26 fps=0.1 q=14.0 size=      18kB time=00:00:01.00 bitrate= 147.4kbits/s speed=0.00298x    frame=   27 fps=0.1 q=14.0 size=      19kB time=00:00:01.04 bitrate= 147.5kbits/s speed=0.00297x    frame=   28 fps=0.1 q=14.0 size=      19kB time=00:00:01.08 bitrate= 147.6kbits/s speed=0.00297x    frame=   29 fps=0.1 q=14.0 size=      20kB time=00:00:01.12 bitrate= 146.4kbits/s speed=0.00297x    frame=   30 fps=0.1 q=13.0 size=      21kB time=00:00:01.16 bitrate= 145.2kbits/s speed=0.00297x    frame=   31 fps=0.1 q=13.0 size=      21kB time=00:00:01.20 bitrate= 144.1kbits/s speed=0.00297x    frame=   32 fps=0.1 q=13.0 size=      22kB time=00:00:01.24 bitrate= 143.1kbits/s speed=0.00302x    frame=   33 fps=0.1 q=13.0 size=      22kB time=00:00:01.28 bitrate= 142.2kbits/s speed=0.00303x    frame=   34 fps=0.1 q=13.0 size=      23kB time=00:00:01.32 bitrate= 141.3kbits/s speed=0.0031x    frame=   35 fps=0.1 q=13.0 size=      23kB time=00:00:01.36 bitrate= 140.4kbits/s speed=0.00311x    frame=   36 fps=0.1 q=13.0 size=      24kB time=00:00:01.40 bitrate= 141.8kbits/s speed=0.0031x    frame=   37 fps=0.1 q=13.0 size=      25kB time=00:00:01.44 bitrate= 141.0kbits/s speed=0.0031x    frame=   38 fps=0.1 q=14.0 size=      26kB time=00:00:01.48 bitrate= 141.3kbits/s speed=0.00309x    frame=   39 fps=0.1 q=14.0 size=      26kB time=00:00:01.52 bitrate= 141.5kbits/s speed=0.00305x    frame=   40 fps=0.1 q=14.0 size=      27kB time=00:00:01.56 bitrate= 140.8kbits/s speed=0.00297x    frame=   41 fps=0.1 q=14.0 size=      28kB time=00:00:01.60 bitrate= 141.0kbits/s speed=0.00283x    frame=   42 fps=0.1 q=14.0 size=      28kB time=00:00:01.64 bitrate= 141.2kbits/s speed=0.00279x    frame=   43 fps=0.1 q=14.0 size=      29kB time=00:00:01.68 bitrate= 140.6kbits/s speed=0.0027x    Error while decoding stream #0:0: Invalid data found when processing input
frame=   43 fps=0.1 q=14.0 size=      29kB time=00:00:01.68 bitrate= 140.6kbits/s speed=0.00264x    frame=   43 fps=0.1 q=14.0 Lsize=      29kB time=00:00:01.68 bitrate= 140.6kbits/s speed=0.0026x    
video:22kB audio:0kB subtitle:0kB other streams:0kB global headers:0kB muxing overhead: 32.501347%
[libx264 @ 0x5555555e0800] frame I:1     Avg QP: 1.40  size:  1587
[libx264 @ 0x5555555e0800] frame P:42    Avg QP: 2.13  size:   493
[libx264 @ 0x5555555e0800] mb I  I16..4: 99.4%  0.0%  0.6%
[libx264 @ 0x5555555e0800] mb P  I16..4:  0.4%  0.0%  0.0%  P16..4:  1.7%  1.0%  0.1%  0.0%  0.0%    skip:96.8%
[libx264 @ 0x5555555e0800] 8x8 transform intra:1.3% inter:23.2%
[libx264 @ 0x5555555e0800] coded y,uvDC,uvAC intra: 1.8% 6.0% 5.3% inter: 0.3% 0.5% 0.4%
[libx264 @ 0x5555555e0800] i16 v,h,dc,p: 61% 17% 22%  0%
[libx264 @ 0x5555555e0800] i8 v,h,dc,ddl,ddr,vr,hd,vl,hu:  9% 16% 60%  1%  3%  2%  2%  1%  5%
[libx264 @ 0x5555555e0800] i4 v,h,dc,ddl,ddr,vr,hd,vl,hu: 15% 32% 45%  1%  1%  1%  1%  1%  2%
[libx264 @ 0x5555555e0800] i8c dc,h,v,p: 79% 21%  1%  0%
[libx264 @ 0x5555555e0800] Weighted P-Frames: Y:0.0% UV:0.0%
[libx264 @ 0x5555555e0800] ref P L0: 59.6%  0.8% 16.5%  7.6%  9.0%  6.6%
[libx264 @ 0x5555555e0800] kb/s:103.61
Exiting normally, received signal 2.
